<?xml version="1.0" encoding="UTF-8" standalone="no"?>
<!-- Created with Inkscape (http://www.inkscape.org/) -->

<svg
   xmlns:dc="http://purl.org/dc/elements/1.1/"
   xmlns:cc="http://creativecommons.org/ns#"
   xmlns:rdf="http://www.w3.org/1999/02/22-rdf-syntax-ns#"
   xmlns:svg="http://www.w3.org/2000/svg"
   xmlns="http://www.w3.org/2000/svg"
   xmlns:sodipodi="http://sodipodi.sourceforge.net/DTD/sodipodi-0.dtd"
   xmlns:inkscape="http://www.inkscape.org/namespaces/inkscape"
   width="1920"
   height="1080"
   viewBox="0 0 254 142.875"
   version="1.1"
   id="svg8"
   inkscape:version="0.92.4 (5da689c313, 2019-01-14)"
   sodipodi:docname="parallax_menu.svg">
  <defs
     id="defs2" />
  <sodipodi:namedview
     id="base"
     pagecolor="#ffffff"
     bordercolor="#666666"
     borderopacity="1.0"
     inkscape:pageopacity="0.0"
     inkscape:pageshadow="2"
     inkscape:zoom="0.125"
     inkscape:cx="1291.6286"
     inkscape:cy="810.84705"
     inkscape:document-units="mm"
     inkscape:current-layer="layer2"
     showgrid="false"
     units="px"
     scale-x="0.5"
     inkscape:window-width="1920"
     inkscape:window-height="1017"
     inkscape:window-x="-8"
     inkscape:window-y="-8"
     inkscape:window-maximized="1" />
  <metadata
     id="metadata5">
    <rdf:RDF>
      <cc:Work
         rdf:about="">
        <dc:format>image/svg+xml</dc:format>
        <dc:type
           rdf:resource="http://purl.org/dc/dcmitype/StillImage" />
        <dc:title></dc:title>
      </cc:Work>
    </rdf:RDF>
  </metadata>
  <g
     inkscape:groupmode="layer"
     id="layer2"
     inkscape:label="Layer 2">
    <path
       style="fill:#646464;fill-opacity:1;stroke:#000000;stroke-width:0.20332263px;stroke-linecap:butt;stroke-linejoin:miter;stroke-opacity:1"
       d="M 1.6391326,143.52708 V 77.40705 c 92.9184354,0 148.8073874,30.90504 244.7756574,30.90504 95.96828,0 378.94749,-35.784785 536.63218,-35.784785 l -0.26712,70.756275 z"
       id="path4984"
       inkscape:connector-curvature="0"
       sodipodi:nodetypes="ccsccc" />
  </g>
  <g
     inkscape:groupmode="layer"
     id="layer3"
     inkscape:label="Layer 3" />
  <g
     inkscape:label="Layer 1"
     inkscape:groupmode="layer"
     id="layer1"
     transform="translate(0,-11.249983)"
     style="display:inline">
    <g
       id="g4633">
      <path
         inkscape:connector-curvature="0"
         id="path4518"
         d="M 1.0690781,133.72381 H 509.95024 v 21.08877 H 1.6036171 Z"
         style="fill:#000000;fill-opacity:1;stroke:#000000;stroke-width:0.26458332px;stroke-linecap:butt;stroke-linejoin:miter;stroke-opacity:1"
         sodipodi:nodetypes="ccccc" />
      <path
         sodipodi:nodetypes="czc"
         inkscape:connector-curvature="0"
         id="path4520"
         d="m 509.95024,133.72381 c -177.75743,0 -230.21208,-13.55227 -314.84348,-13.89802 -84.6314,-0.34575 -153.59423,13.89802 -194.0376819,13.89802"
         style="fill:#000000;fill-opacity:1;stroke:#000000;stroke-width:0.26458332px;stroke-linecap:butt;stroke-linejoin:miter;stroke-opacity:1" />
    </g>
    <g
       id="g4627"
       transform="matrix(0.21149351,0,0,0.21149351,153.23076,93.218408)">
      <path
         sodipodi:nodetypes="sssccccccccccccssss"
         inkscape:connector-curvature="0"
         transform="matrix(0.26458333,0,0,0.26458333,0,11.249983)"
         id="path4568"
         d="m 503.57227,268.57227 c -5.97422,2.85233 -49.35506,64.29505 -54.28711,67.14257 -6.53062,3.77045 -95.79945,14.37171 -101.42774,20 -5.32749,5.32749 -10,55.71289 -10,55.71289 h 75.95508 c -0.4306,-2.21256 -0.65163,-4.46079 -0.66016,-6.71484 5.8e-4,-19.80511 16.05622,-35.85987 35.86133,-35.85937 19.80435,5.7e-4 35.8588,16.05502 35.85938,35.85937 -0.006,2.25381 -0.22437,4.50203 -0.65235,6.71484 h 126.69727 c -0.50891,-2.37356 -0.77202,-4.79323 -0.78516,-7.2207 0.001,-19.52555 15.82992,-35.35358 35.35547,-35.35351 19.52555,-7e-5 35.35446,15.82796 35.35547,35.35351 -0.004,2.42646 -0.25679,4.84611 -0.75586,7.2207 h 32.05469 c 0,0 7.39873,-50.19546 6.42969,-53.57031 -0.68314,-2.37916 -12.92038,-17.20553 -17.85743,-22.14258 -2.87904,-2.87904 -29.60363,-64.85128 -33.57226,-67.14257 -5.30173,-3.06095 -155.15427,-4.01815 -163.57031,0 z"
         style="fill:#000000;fill-opacity:1;stroke:#000000;stroke-width:0.99999994px;stroke-linecap:butt;stroke-linejoin:miter;stroke-opacity:1" />
      <g
         transform="translate(0,-0.0991021)"
         id="g4572">
        <path
           style="fill:#000000;fill-opacity:1;stroke-width:0.26458332"
           d="m 118.76771,109.47589 a 8.8198938,8.8198938 0 0 0 -8.81962,8.81962 8.8198938,8.8198938 0 0 0 8.81962,8.82013 8.8198938,8.8198938 0 0 0 8.82013,-8.82013 8.8198938,8.8198938 0 0 0 -8.82013,-8.81962 z m 0,3.34088 a 5.4790252,5.4790252 0 0 1 5.47925,5.47874 5.4790252,5.4790252 0 0 1 -5.47925,5.47925 5.4790252,5.4790252 0 0 1 -5.47874,-5.47925 5.4790252,5.4790252 0 0 1 5.47874,-5.47874 z"
           id="path4526"
           inkscape:connector-curvature="0" />
        <circle
           style="fill:#000000;fill-opacity:1;stroke-width:0.43713766"
           id="path4548"
           cx="118.76797"
           cy="118.29577"
           r="5.0781212" />
      </g>
      <g
         transform="translate(0.12897754,-0.0991021)"
         id="g4576">
        <path
           style="fill:#000000;fill-opacity:1;stroke-width:0.26458332"
           d="m 170.656,109.47589 a 8.8198939,8.8198939 0 0 0 -8.81962,8.81962 8.8198939,8.8198939 0 0 0 8.81962,8.82013 8.8198939,8.8198939 0 0 0 8.82013,-8.82013 8.8198939,8.8198939 0 0 0 -8.82013,-8.81962 z m 0,3.34088 a 5.4790253,5.4790253 0 0 1 5.47925,5.47874 5.4790253,5.4790253 0 0 1 -5.47925,5.47925 5.4790253,5.4790253 0 0 1 -5.47874,-5.47925 5.4790253,5.4790253 0 0 1 5.47874,-5.47874 z"
           id="path4526-0"
           inkscape:connector-curvature="0" />
        <circle
           style="fill:#000000;fill-opacity:1;stroke-width:0.43713766"
           id="path4548-9"
           cx="170.65625"
           cy="118.29577"
           r="5.0781212" />
      </g>
      <path
         inkscape:connector-curvature="0"
         id="path4605"
         d="m 186.90922,103.0982 c 0,0 -0.56696,-19.087801 6.99256,-32.316968"
         style="fill:none;stroke:#000000;stroke-width:0.66500002;stroke-linecap:round;stroke-linejoin:miter;stroke-miterlimit:4;stroke-dasharray:none;stroke-opacity:1" />
      <circle
         r="1.0394346"
         cy="70.686729"
         cx="193.99629"
         id="path4616"
         style="fill:#000000;fill-opacity:1;stroke-width:0.66499996;stroke-linecap:round;stroke-miterlimit:4;stroke-dasharray:none" />
    </g>
    <g
       id="g4728">
      <path
         id="path4639"
         transform="matrix(0.13229167,0,0,0.13229167,0,11.249983)"
         d="m 548.08203,820.66797 c -0.65572,-0.0121 -1.11917,0.053 -1.20508,0.0625 -0.36355,0.0368 -6.7753,0.40565 -6.10156,7.05664 0.67378,6.65091 4.88842,8.6516 5.375,13.45508 0.80095,7.90631 -1.94506,12.57226 -3.64648,18.16992 1.66184,2.89496 3.08952,6.10938 3.5957,10.60547 0.44214,3.92737 -0.13282,6.4056 -1.27344,8.01367 2.2506,1.63724 5.22998,1.28249 7.97461,1.00391 4.81395,-0.48983 10.34805,-1.02441 9.32422,-11.13086 -1.22542,-12.09638 -9.19639,-15.03118 -10.43164,-27.22461 -0.48661,-4.80348 3.2421,-7.60683 2.56836,-14.25781 -0.50536,-4.98853 -4.21253,-5.71749 -6.17969,-5.75391 z"
         style="fill:#000000;fill-opacity:1;stroke:none;stroke-width:0.18382806px;stroke-linecap:butt;stroke-linejoin:miter;stroke-opacity:1"
         inkscape:connector-curvature="0" />
      <path
         id="path4639-6"
         transform="matrix(0.13229167,0,0,0.13229167,0,11.249983)"
         d="m 530.73438,823.11914 c -0.65582,-0.005 -1.11733,0.0648 -1.20313,0.0742 -0.36312,0.0409 -6.77133,0.48195 -6.02344,7.125 0.74789,6.64297 4.98522,8.59485 5.52539,13.39258 0.92221,8.19148 -2.01197,12.93844 -3.62304,18.84179 2.23345,1.62937 2.85437,4.53631 3.43164,7.2168 0.73469,3.41381 1.6205,7.1835 -1.71094,9.83789 2.34018,2.62871 5.81008,2.17748 8.97266,1.82031 4.80818,-0.54342 10.33565,-1.13798 9.19921,-11.23242 -1.36019,-12.08194 -9.36131,-14.9285 -10.73242,-27.10742 -0.54013,-4.79773 3.1561,-7.64406 2.40821,-14.28711 -0.56095,-4.98257 -4.27671,-5.66661 -6.24414,-5.68164 z"
         style="fill:#000000;fill-opacity:1;stroke:none;stroke-width:0.18382806px;stroke-linecap:butt;stroke-linejoin:miter;stroke-opacity:1"
         inkscape:connector-curvature="0" />
      <path
         sodipodi:nodetypes="sssssssss"
         inkscape:connector-curvature="0"
         id="path4639-2"
         d="m 68.841537,127.94513 c -1.572538,0.33794 -2.266299,-0.54594 -3.851451,-0.2053 -0.624457,0.13416 -0.825715,0.71768 -1.690346,0.90348 -0.864627,0.18582 -1.006975,-0.65196 -1.017132,-0.69921 -0.0096,-0.0447 -0.224324,-0.86825 0.640352,-1.05406 0.864628,-0.18582 1.287832,0.26347 1.912286,0.12928 1.585151,-0.34065 1.854536,-1.43152 3.427074,-1.76946 1.313849,-0.28233 1.46498,0.43754 1.599747,1.06332 0.134799,0.62635 0.314129,1.34513 -1.02053,1.63195 z"
         style="fill:#000000;fill-opacity:1;stroke:none;stroke-width:0.02431892px;stroke-linecap:butt;stroke-linejoin:miter;stroke-opacity:1" />
    </g>
    <g
       id="g4756"
       transform="translate(140.62325,17.412542)">
      <g
         id="g4765"
         transform="rotate(4.6662582,108.63767,154.64538)">
        <g
           id="g4747">
          <path
             sodipodi:nodetypes="ccccccccc"
             inkscape:connector-curvature="0"
             id="path4730"
             d="m 117.21042,89.037485 h -1.66087 v -2.513543 h 18.91082 v 2.513541 h -3.35933 v 15.209407 h -13.88649 z"
             style="fill:#000000;fill-opacity:1;stroke:none;stroke-width:0.13229167px;stroke-linecap:butt;stroke-linejoin:miter;stroke-opacity:1" />
          <path
             sodipodi:nodetypes="ccc"
             inkscape:connector-curvature="0"
             id="path4732"
             d="m 128.45399,85.56864 h -6.42484 l -2.63943,-5.528809"
             style="fill:none;stroke:#000000;stroke-width:1.01849997;stroke-linecap:round;stroke-linejoin:round;stroke-miterlimit:4;stroke-dasharray:none;stroke-opacity:1" />
        </g>
        <g
           id="g4743"
           transform="translate(0,0.0638707)">
          <path
             sodipodi:nodetypes="cccc"
             inkscape:connector-curvature="0"
             id="path4734"
             d="m 141.25195,95.192054 v 7.577096 -1.6838 l -2.52569,2.5257"
             style="fill:none;stroke:#000000;stroke-width:1.13250005;stroke-linecap:round;stroke-linejoin:round;stroke-miterlimit:4;stroke-dasharray:none;stroke-opacity:1" />
          <path
             sodipodi:nodetypes="cc"
             inkscape:connector-curvature="0"
             id="path4736"
             d="m 141.25195,101.08535 2.43215,2.43215"
             style="fill:none;stroke:#000000;stroke-width:1.13250005;stroke-linecap:round;stroke-linejoin:round;stroke-miterlimit:4;stroke-dasharray:none;stroke-opacity:1" />
          <path
             inkscape:connector-curvature="0"
             id="path4738"
             d="m 137.05169,95.026689 h 8.32545 l 2.0112,-13.423613"
             style="fill:none;stroke:#000000;stroke-width:2.68249989;stroke-linecap:round;stroke-linejoin:round;stroke-miterlimit:4;stroke-dasharray:none;stroke-opacity:1" />
        </g>
      </g>
    </g>
    <g
       id="g4816"
       transform="matrix(0.55221662,0.02761334,-0.02761334,0.55221662,334.02294,65.883023)">
      <g
         transform="translate(-10.851143,23.386083)"
         id="g4800">
        <path
           style="fill:none;stroke:#000000;stroke-width:1.1825;stroke-linecap:butt;stroke-linejoin:miter;stroke-miterlimit:4;stroke-dasharray:none;stroke-opacity:1"
           d="m 111.91875,63.637486 h 3.70418"
           id="path4788"
           inkscape:connector-curvature="0" />
        <g
           id="g4794">
          <path
             sodipodi:nodetypes="ccccsscsscccc"
             inkscape:connector-curvature="0"
             id="path4769-8"
             d="m 116.49286,63.637484 h -0.86993 v 0 4.696355 c 0,0 3.05766,7.467382 7.57908,15.350912 0.83981,1.464278 -0.79009,4.757421 -2.43186,4.757421 h -6.86191 -7.3238 c -1.64177,0 -3.26787,-3.290972 -2.43186,-4.757422 4.33433,-7.602896 7.76617,-15.350911 7.76617,-15.350911 v -4.696355 0 h -0.86993"
             style="fill:none;stroke:#000000;stroke-width:1.1825;stroke-linecap:round;stroke-linejoin:miter;stroke-miterlimit:4;stroke-dasharray:none;stroke-opacity:1" />
          <path
             sodipodi:nodetypes="ccccccccc"
             inkscape:connector-curvature="0"
             id="path4790"
             d="m 106.547,78.634707 -2.56575,5.838714 1.42214,3.472656 1.38906,0.628385 14.32057,0.03307 1.91823,-1.5875 0.56224,-2.645833 -2.16418,-3.742451 c -7.02459,0.06094 -9.26965,-4.148561 -14.88231,-1.997041 z"
             style="fill:#000000;fill-opacity:1;stroke:#000000;stroke-width:0.13229167px;stroke-linecap:butt;stroke-linejoin:miter;stroke-opacity:1" />
        </g>
      </g>
      <circle
         r="2.2489583"
         cy="81.232277"
         cx="104.64271"
         id="path4802"
         style="fill:#000000;fill-opacity:1;stroke:none;stroke-width:1.1825;stroke-linecap:round;stroke-linejoin:round;stroke-miterlimit:4;stroke-dasharray:none" />
      <circle
         r="1.2567708"
         cy="77.329674"
         cx="100.07865"
         id="path4804"
         style="fill:#000000;fill-opacity:1;stroke:none;stroke-width:0.66080886;stroke-linecap:round;stroke-linejoin:round;stroke-miterlimit:4;stroke-dasharray:none" />
      <circle
         r="1.3890626"
         cy="73.360924"
         cx="105.5026"
         id="path4806"
         style="fill:#000000;fill-opacity:1;stroke:none;stroke-width:0.77601564;stroke-linecap:round;stroke-linejoin:round;stroke-miterlimit:4;stroke-dasharray:none" />
    </g>
    <g
       id="g4981"
       transform="matrix(0.49597128,0.01034646,-0.01034646,0.49597128,251.18777,76.36157)">
      <path
         inkscape:connector-curvature="0"
         id="path4935"
         d="m 462.38964,99.091652 v -11.1125"
         style="fill:none;stroke:#000000;stroke-width:2.13249993;stroke-linecap:butt;stroke-linejoin:miter;stroke-miterlimit:4;stroke-dasharray:none;stroke-opacity:1" />
      <circle
         r="3.1805074"
         cy="87.802055"
         cx="462.38965"
         id="path4939"
         style="fill:#000000;fill-opacity:1;stroke:none;stroke-width:1.1825;stroke-linecap:round;stroke-linejoin:round;stroke-miterlimit:4;stroke-dasharray:none" />
      <rect
         y="97.314308"
         x="458.78818"
         height="3.8353219"
         width="7.2029181"
         id="rect4941"
         style="fill:#000000;fill-opacity:1;stroke:none;stroke-width:2.13656425;stroke-linecap:round;stroke-linejoin:round;stroke-miterlimit:4;stroke-dasharray:none" />
      <path
         id="rect4950"
         transform="matrix(0.13229167,0,0,0.13229167,0,11.249983)"
         d="m 3433.7109,666.3418 v 41.7207 h 123.0352 v -41.7207 h -6.7168 v 2.83008 h -15.3789 v -2.83008 h -9.457 v 14.67382 h -59.9278 V 666.3418 Z"
         style="fill:#000000;fill-opacity:1;stroke:none;stroke-width:16.11968422;stroke-linecap:round;stroke-linejoin:round;stroke-miterlimit:4;stroke-dasharray:none"
         inkscape:connector-curvature="0" />
      <rect
         y="98.954292"
         x="467.71881"
         height="0.70462948"
         width="1.7889723"
         id="rect4974"
         style="fill:#000000;fill-opacity:1;stroke:none;stroke-width:1.82144773;stroke-linecap:round;stroke-linejoin:round;stroke-miterlimit:4;stroke-dasharray:none" />
    </g>
  </g>
</svg>
